<svg xmlns="http://www.w3.org/2000/svg" xmlns:xlink="http://www.w3.org/1999/xlink" width="500" zoomAndPan="magnify" viewBox="0 0 375 374.999991" height="500" preserveAspectRatio="xMidYMid meet" version="1.0"><defs><clipPath id="3e68339780"><path d="M 24.847656 94.941406 L 350.347656 94.941406 L 350.347656 279.949219 L 24.847656 279.949219 Z M 24.847656 94.941406 " clip-rule="nonzero"/></clipPath></defs><rect x="-37.5" width="450" fill="#ffffff" y="-37.499999" height="449.999989" fill-opacity="1"/><rect x="-37.5" width="450" fill="#ffffff" y="-37.499999" height="449.999989" fill-opacity="1"/><rect x="-37.5" width="450" fill="#ffffff" y="-37.499999" height="449.999989" fill-opacity="1"/><g clip-path="url(#3e68339780)"><path fill="#0f528c" d="M 335.769531 239.820312 C 331.414062 239.820312 328.980469 236.992188 329.546875 232.558594 C 331.457031 217.746094 339.570312 154.402344 340.878906 142.695312 C 343.914062 115.433594 327.84375 96.246094 297.347656 96.246094 C 275.875 96.246094 253.511719 106.699219 236.925781 124.5 C 231.460938 106.523438 213.523438 97.289062 196.453125 97.289062 C 187.035156 97.289062 174.847656 97.828125 166.683594 98.015625 L 166.691406 134.429688 L 172.0625 134.429688 C 189.527344 134.429688 191.921875 141.394531 190.828125 150.757812 C 189.28125 163.878906 174.433594 278.117188 174.433594 278.117188 L 221.183594 278.046875 C 221.183594 278.046875 230.445312 203.535156 235.738281 161.863281 C 248.910156 141.902344 264.6875 139.257812 276.296875 139.257812 C 287.351562 139.257812 293.773438 145.246094 292.667969 155.992188 C 291.710938 165.15625 284.195312 226.113281 282.582031 239.367188 C 279.4375 265.109375 295.125 278.9375 320.839844 278.9375 C 328.59375 278.9375 342.476562 278.585938 350.355469 278.078125 L 350.355469 239.671875 C 345.984375 239.855469 339.320312 239.820312 335.777344 239.820312 M 118.507812 175.40625 C 94.101562 164.238281 70.023438 156.8125 70.023438 146.441406 C 70.023438 138.433594 80.675781 132.925781 110.25 132.925781 C 120.285156 132.925781 139.5 133.335938 147.976562 133.921875 L 150.523438 97.578125 C 141 96.441406 119.386719 94.941406 109.113281 94.941406 C 59.359375 94.941406 24.847656 109.195312 24.847656 146.398438 C 24.847656 180.300781 51.386719 192.808594 68.839844 200.5625 C 91.203125 210.503906 114.382812 218.699219 114.382812 227.242188 C 114.382812 238.140625 100.667969 240.035156 74.871094 240.035156 C 63.804688 240.035156 46.140625 238.464844 32.617188 237.355469 L 29.414062 276.597656 C 47.390625 278.707031 65.429688 279.824219 83.53125 279.949219 C 131.679688 279.949219 162.503906 262.117188 162.503906 228.855469 C 162.503906 196.542969 146.046875 188.015625 118.511719 175.402344 " fill-opacity="1" fill-rule="nonzero"/></g></svg>