<svg xmlns="http://www.w3.org/2000/svg" xmlns:xlink="http://www.w3.org/1999/xlink" width="351.457" height="200" viewBox="0 0 351.457 200"><defs><clipPath id="a"><rect width="351.457" height="200" fill="#0f528c"/></clipPath></defs><g transform="translate(-3 -1.113)"><g transform="translate(3 1.113)" clip-path="url(#a)"><path d="M338.716,157.733c-4.7,0-7.329-3.059-6.718-7.85,2.063-16.013,10.823-84.492,12.234-97.147,3.277-29.468-14.073-50.211-47-50.211-23.185,0-47.334,11.3-65.241,30.541-5.9-19.433-25.269-29.414-43.7-29.414-10.171,0-23.329.583-32.142.787l.006,39.361h5.8c18.856,0,21.442,7.532,20.26,17.655-1.669,14.182-17.7,137.677-17.7,137.677l50.477-.075s10-80.55,15.715-125.6c14.222-21.578,31.261-24.434,43.794-24.434,11.935,0,18.87,6.473,17.676,18.09-1.032,9.907-9.146,75.8-10.891,90.13-3.392,27.828,13.544,42.776,41.309,42.776,8.374,0,23.363-.381,31.872-.931V157.57c-4.722.2-11.915.163-15.742.163M104.13,88.1C77.775,76.024,51.78,68,51.78,56.787c0-8.658,11.5-14.609,43.434-14.609,10.836,0,31.58.442,40.733,1.073L138.7,3.963c-10.286-1.229-33.621-2.85-44.715-2.85C40.266,1.113,3,16.523,3,56.739c0,36.649,28.655,50.172,47.5,58.552,24.149,10.748,49.174,19.609,49.174,28.844,0,11.78-14.807,13.83-42.661,13.83-11.949,0-31.022-1.7-45.625-2.9L7.933,197.489a531.857,531.857,0,0,0,58.43,3.624c51.99,0,85.272-19.277,85.272-55.233,0-34.931-17.77-44.152-47.5-57.784" transform="translate(-3 -1.113)" fill="#0f528c"/></g></g></svg>